<svg width="126" height="33" viewBox="0 0 126 33" fill="none" xmlns="http://www.w3.org/2000/svg">
<path fill-rule="evenodd" clip-rule="evenodd" d="M58.558 0.0672835C58.5841 0.109484 58.3833 0.167155 58.1116 0.195517C57.3628 0.273472 56.1569 0.644422 55.2564 1.07364C52.3614 2.45362 50.4207 5.07648 49.7577 8.50493L49.5998 9.32143L49.5993 11.1693C49.5988 13.2165 49.6946 13.9214 50.1641 15.3239C51.3128 18.7556 53.8369 20.9787 57.404 21.7008C57.7589 21.7727 58.6947 21.8553 59.4837 21.8843L60.9181 21.9373L61.9869 21.7865C64.5029 21.4315 66.3762 20.5872 67.9362 19.1049C69.6988 17.4302 70.871 14.9242 71.1075 12.3251L71.1696 11.642L73.798 11.6192C76.4326 11.5964 76.5619 11.5814 76.5619 11.2982C76.5619 11.251 76.5289 11.1605 76.4886 11.0971L76.4153 10.9819L73.8273 10.9925L71.2394 11.0032L71.1824 9.7755C71.1511 9.10029 71.1015 8.44021 71.0721 8.30854L71.0188 8.06909L73.7177 8.07889C76.516 8.08903 76.6225 8.07605 76.4981 7.73923C76.4704 7.66402 76.406 7.57352 76.3551 7.53819C76.3041 7.50278 75.0636 7.47588 73.5983 7.47829C72.133 7.48069 70.9234 7.4709 70.9103 7.45663C70.897 7.44228 70.8252 7.19131 70.7506 6.89892C69.8892 3.52238 67.3175 1.07751 63.8437 0.33269C63.4103 0.239694 62.9003 0.128736 62.7104 0.08602C62.2556 -0.0162576 58.4956 -0.0332752 58.558 0.0672835ZM16.7728 0.485762L13.8218 0.514039L13.7661 0.689029C13.6617 1.0164 13.9351 1.26642 14.6098 1.46084C15.7334 1.78452 15.9664 1.88877 16.0109 2.08748C16.0338 2.18993 16.0698 3.50175 16.0911 5.00257L16.1297 7.7314H10.7768H5.424L5.06414 7.44099C4.86629 7.28121 4.52957 7.05878 4.31593 6.94679L3.92749 6.74301L3.02115 6.74868L2.1148 6.75435L1.7237 6.94266C1.06111 7.2617 0.726889 7.60214 0.35218 8.34L0 9.03325V10.4237V11.8142L0.215883 12.8715C0.64877 14.9924 1.37177 16.3893 2.76219 17.7914C4.66871 19.714 7.23617 20.8314 10.6603 21.2289C11.5489 21.332 20.7983 21.4374 21.0824 21.3476C21.3105 21.2755 21.2824 20.8302 21.0401 20.675C20.9333 20.6066 20.4984 20.4511 20.0736 20.3295C19.6489 20.2078 19.2604 20.0676 19.2105 20.018C19.1007 19.9087 19.0276 11.7837 19.1355 11.6804C19.1742 11.6434 19.5851 11.6422 20.0486 11.6779L20.8913 11.7428L21.2139 12.0005C21.577 12.2906 22.1545 13.1697 23.2652 15.123C25.6496 19.3159 26.4409 20.4269 27.514 21.0875C28.1414 21.4737 28.7121 21.569 30.3961 21.569H31.9255L32.0511 21.444C32.138 21.3575 32.1588 21.2324 32.1189 21.0377L32.061 20.7564L31.46 20.5336C30.5528 20.1972 30.3028 20.0434 29.7349 19.4717C29.1353 18.868 28.2123 17.5053 26.5858 14.8221C25.9553 13.7821 25.2313 12.6352 24.977 12.2736C24.7226 11.9118 24.5144 11.6024 24.5143 11.586C24.5143 11.5695 25.3785 11.5754 26.4349 11.599C27.4913 11.6227 30.0648 11.6227 32.1537 11.599L35.9517 11.5561L35.9806 11.3528C35.9965 11.241 35.9765 11.1167 35.9363 11.0767C35.896 11.0365 33.4748 10.9986 30.5556 10.9923C27.6365 10.986 25.2148 10.9603 25.1739 10.9353C25.1331 10.9102 25.405 10.7457 25.7782 10.5697C26.9191 10.0315 27.6851 9.35968 28.3563 8.3082L28.5094 8.06858L32.1442 8.07537C34.1434 8.07915 35.8301 8.08061 35.8924 8.07872C35.9678 8.0764 35.9967 7.98168 35.9787 7.79586L35.9517 7.51653L32.3479 7.4941C30.3658 7.48173 28.7455 7.44305 28.7472 7.40815C28.7488 7.37326 28.8065 7.11258 28.8753 6.82895C29.0388 6.15469 29.0383 4.72255 28.8745 4.09608C28.4256 2.38013 27.0199 1.16922 24.9029 0.674847L24.126 0.493412L21.9249 0.475449C20.7143 0.465565 18.3959 0.470206 16.7728 0.485762ZM39.6634 0.510343L36.1243 0.554778L36.0983 0.819927C36.084 0.96578 36.1228 1.12616 36.1847 1.17635C36.2465 1.22646 36.7048 1.39388 37.2033 1.54825C37.7018 1.70261 38.1582 1.86608 38.2175 1.91146L38.3254 1.99397V10.9693V19.9447L38.0449 20.0612C37.8906 20.1251 37.4536 20.2641 37.0738 20.3699C36.694 20.4757 36.3153 20.6383 36.2322 20.7313C36.0816 20.9 36.023 21.3012 36.1459 21.3221C36.3602 21.3585 43.4103 21.3718 43.5693 21.3361C43.6816 21.3109 43.7635 21.2279 43.7635 21.1394C43.7635 20.8285 43.4585 20.6163 42.5982 20.3288C42.1235 20.1702 41.667 20.0127 41.584 19.9789L41.4329 19.9176V15.7584V11.5991L42.3608 11.6405C42.8712 11.6632 44.2793 11.6535 45.4899 11.6189L47.691 11.5561V11.2982V11.0404L44.5492 10.9974L41.4074 10.9544L41.4026 10.4817C41.4 10.2217 41.4057 9.57429 41.4154 9.04296L41.4329 8.077L44.4996 8.07966C46.1863 8.08121 47.6041 8.05912 47.6503 8.03076C47.6964 8.00231 47.7342 7.9088 47.7342 7.82277C47.7342 7.46282 47.6212 7.45121 44.4543 7.48757L41.4329 7.52221V4.75805V1.99397L41.5488 1.89823C41.6125 1.84554 42.0689 1.68284 42.5628 1.53673C43.0568 1.39062 43.5096 1.23084 43.569 1.18177C43.727 1.05121 43.7064 0.54137 43.5406 0.478027C43.4655 0.449321 43.3588 0.434881 43.3033 0.445883C43.2478 0.456884 41.6099 0.485934 39.6634 0.510343ZM94.3893 0.50871L91.4545 0.554778L91.4267 0.796291C91.4114 0.929166 91.4457 1.09401 91.5029 1.16269C91.5601 1.23127 91.9999 1.40729 92.4801 1.55392C92.9605 1.70055 93.4118 1.87545 93.483 1.94275L93.6125 2.06496L93.6263 8.93209C93.6366 14.1105 93.6154 15.7895 93.54 15.7599C93.4849 15.7383 93.3621 15.6086 93.2672 15.4718C93.1722 15.3348 91.8516 13.6841 90.3324 11.8035C88.8132 9.92281 87.5185 8.31318 87.4552 8.22655L87.3402 8.06901L89.1384 8.07528C90.1274 8.07872 91.0004 8.08009 91.0784 8.07837C91.2673 8.07416 91.3465 7.84597 91.2326 7.63402L91.1407 7.46325L89.0965 7.47399C87.9722 7.47992 87.0055 7.48224 86.9482 7.47915C86.891 7.47605 85.6738 6.01357 84.2435 4.22904C82.8132 2.44451 81.5525 0.878113 81.4421 0.74816L81.2413 0.511804H78.9866H76.7318L76.6782 0.650782C76.6487 0.727189 76.6597 0.886192 76.7025 1.00403L76.7803 1.21821L77.8593 1.57412L78.9383 1.92994L78.9603 10.8763L78.9822 19.8227L78.8214 19.9677C78.7328 20.0474 78.3165 20.207 77.8961 20.3221C77.4758 20.4372 77.0334 20.6044 76.9129 20.6936C76.67 20.8735 76.576 21.2064 76.7527 21.2614C76.8154 21.2808 78.2087 21.3195 79.849 21.3475L82.8312 21.3983L82.9899 21.2828L83.1485 21.1673L83.0669 20.9169L82.9854 20.6665L81.9545 20.3227L80.9236 19.9789L80.8686 19.1624C80.8383 18.7134 80.8091 16.8279 80.8038 14.9725L80.7942 11.599H82.6932H84.5922V11.3463C84.5922 11.2072 84.5527 11.0693 84.5046 11.0396C84.4564 11.01 83.6018 10.9884 82.6056 10.9918L80.7942 10.9979V7.96965V4.94137L81.0423 5.19758C81.1789 5.33854 81.8619 6.16931 82.5602 7.04382C83.2586 7.91834 84.329 9.25268 84.939 10.009C85.549 10.7654 86.9156 12.4671 87.9759 13.7907C89.0362 15.1143 90.624 17.0868 91.5042 18.174C92.3846 19.2613 93.3326 20.4533 93.611 20.8229L94.1173 21.4951L94.5554 21.4415C94.7964 21.412 95.1003 21.3676 95.2309 21.3428L95.4683 21.2975V16.4483V11.599H98.9153H102.362L102.413 11.4393C102.441 11.3513 102.44 11.216 102.41 11.1385L102.355 10.9974H98.9118H95.4683V9.53725V8.07717L98.9415 8.05465L102.415 8.03222L102.447 7.866C102.464 7.77455 102.409 7.64889 102.324 7.58667L102.168 7.47356H98.8127H95.4574L95.4845 4.73029C95.4993 3.22147 95.5354 1.96329 95.5645 1.93432C95.5937 1.90536 96.0909 1.72255 96.6694 1.52822L97.7213 1.1748L97.6954 0.821818L97.6694 0.468831L97.4968 0.465737C97.4019 0.464018 96.0035 0.483356 94.3893 0.50871ZM108.243 0.517305C107.175 0.550911 105.555 0.557529 104.642 0.532174L102.983 0.48602L102.923 0.641328C102.89 0.727103 102.918 0.892552 102.985 1.01107L103.108 1.22551L104.143 1.57773L105.179 1.92994L105.222 10.8531C105.246 15.7609 105.237 19.8268 105.202 19.8884C105.168 19.9501 104.799 20.1045 104.382 20.2317C103.966 20.3588 103.489 20.5281 103.323 20.6076L103.021 20.7525L102.994 21.0318L102.967 21.3111L103.296 21.3186C103.477 21.3227 105.143 21.3421 106.997 21.3615L110.369 21.3969L110.526 21.2823L110.684 21.1677L110.564 20.9171L110.445 20.6665L109.515 20.3533C109.004 20.1811 108.528 19.9927 108.458 19.9346L108.33 19.829V15.7314V11.6338L111.718 11.6177C115.24 11.601 115.526 11.5886 117.307 11.373C119.301 11.1317 122.151 10.2773 123.522 9.50992C124.791 8.79965 126.146 7.73768 125.987 7.5791C125.953 7.54473 121.975 7.5076 117.149 7.49668C112.322 7.48568 108.353 7.47605 108.329 7.47519C108.274 7.47313 108.317 2.45285 108.376 2.09358L108.419 1.8274L109.345 1.5528C110.478 1.21709 110.524 1.19303 110.557 0.922204C110.582 0.720571 110.377 0.406519 110.244 0.44107C110.212 0.449492 109.312 0.483786 108.243 0.517305ZM59.1403 1.38048C56.5108 1.61322 54.6793 2.91292 53.8179 5.15753C53.5671 5.81082 53.1722 7.17446 53.1722 7.38701L53.1721 7.51653L58.9933 7.48912C63.1225 7.46969 64.8662 7.48938 64.9925 7.55667C65.1756 7.65422 65.2339 7.94008 65.0889 8.02938C65.0439 8.05706 62.3152 8.0782 59.025 8.0764L53.0428 8.07313L53.0368 8.31052C53.0334 8.44107 52.9989 9.099 52.9599 9.77266L52.889 10.9974H58.9808H65.0725L65.1235 11.1572C65.1515 11.2451 65.1501 11.3802 65.1203 11.4574L65.0661 11.5979L59.0142 11.6199L52.9622 11.642L52.9851 12.0718C53.0201 12.7301 53.3195 14.4885 53.5191 15.2088C53.7465 16.0293 54.4315 17.422 54.9355 18.0881C55.7349 19.145 57.088 20.0252 58.3656 20.3195C59.3875 20.5549 60.6166 20.6402 61.5278 20.5391C62.6678 20.4125 63.2678 20.2475 64.1788 19.81L64.9565 19.4364L65.6207 18.7751L66.285 18.1138L66.6786 17.3241C67.7955 15.0834 68.1803 10.728 67.5395 7.58057C67.1181 5.51017 66.1115 3.6366 64.9558 2.77162C63.9074 1.98692 62.7129 1.52616 61.3293 1.37283C60.4661 1.27717 60.3009 1.27777 59.1403 1.38048ZM20.0259 1.79552L19.1196 1.84399L19.0958 6.17524L19.072 10.5065L20.6064 10.457C22.2461 10.404 22.9305 10.2811 23.6843 9.90442C24.2482 9.62259 24.863 9.03635 25.155 8.50218C25.7599 7.39569 25.7863 4.82629 25.2045 3.69083C24.6679 2.64373 23.5857 1.99234 22.1407 1.847C21.2053 1.75289 20.9426 1.74653 20.0259 1.79552ZM2.45913 8.07674C2.42926 8.12487 2.4852 8.29385 2.58351 8.45216C2.68174 8.61056 2.76219 8.80317 2.76219 8.88035C2.76219 9.05886 2.43746 9.06557 2.10514 8.89393C1.95693 8.81735 1.82874 8.79836 1.78101 8.84589C1.66483 8.96157 1.61839 9.73046 1.71869 9.87889L1.80492 10.0066L2.08934 9.8917C2.80302 9.60326 2.91981 9.69024 2.58274 10.2591C2.48399 10.4257 2.42805 10.602 2.45835 10.6508C2.53051 10.7671 3.59862 10.7662 3.67087 10.6498C3.70151 10.6005 3.665 10.4665 3.58964 10.352C3.46111 10.1568 3.39586 9.62225 3.50048 9.62225C3.52672 9.62225 3.69115 9.71894 3.86578 9.83712C4.04048 9.9553 4.22978 10.052 4.28658 10.052C4.43772 10.052 4.53371 9.14464 4.41096 8.8764L4.31178 8.65964L4.00751 8.89067C3.84014 9.01778 3.64687 9.10021 3.57799 9.07391C3.41217 9.01056 3.41899 8.72212 3.59241 8.45852L3.73216 8.24623L3.62503 8.11774C3.50065 7.96853 2.54709 7.93501 2.45913 8.07674ZM108.274 8.84193C108.302 9.24743 108.326 9.90339 108.327 10.2994L108.33 11.0197L112.451 10.9719C116.99 10.9193 117.625 10.8619 119.82 10.3065C121.436 9.89754 123.764 8.89299 124.515 8.28018L124.773 8.06883L116.498 8.08671L108.223 8.1045L108.274 8.84193ZM5.23652 11.4975C4.74234 12.0412 3.30013 12.2827 2.29124 11.9906C2.01787 11.9115 1.78153 11.8593 1.76608 11.8746C1.70453 11.936 1.91541 13.3138 2.07907 13.9196C2.63841 15.9905 3.94053 17.4669 6.17178 18.5602C8.27993 19.5932 10.2609 19.9888 13.7795 20.0796L15.8628 20.1333L15.9573 19.9575C16.0338 19.8152 16.1055 14.0877 16.0611 11.6635L16.0553 11.3412H10.7169H5.37851L5.23652 11.4975ZM29.4632 25.5544C29.2177 25.6078 28.9846 25.6842 28.9453 25.7244C28.9058 25.7644 28.9993 25.9022 29.153 26.0305L29.4325 26.2639L29.3764 28.4364C29.3359 30.0048 29.29 30.6392 29.2116 30.7173C29.1518 30.7769 29.0901 30.8991 29.0745 30.9888L29.0462 31.1521L29.8023 31.164C30.2182 31.1705 30.5821 31.1379 30.6107 31.0918C30.6395 31.0456 30.5225 30.8645 30.3509 30.6896L30.0389 30.3714L30.0401 29.6444C30.0407 29.2446 30.0651 28.8287 30.0943 28.7202C30.2019 28.3202 31.3262 27.9916 31.4539 28.3229C31.4827 28.3977 31.5063 28.8951 31.5063 29.4282V30.3976L31.3083 30.6889C31.1995 30.8492 31.0816 31.0271 31.0464 31.0843C30.9976 31.1636 31.1827 31.1841 31.8198 31.1703C32.3562 31.1587 32.6691 31.1168 32.6901 31.054C32.7082 30.9999 32.5816 30.823 32.409 30.6609L32.095 30.3659L32.1991 29.3611L32.3031 28.3564L32.1944 28.0952C32.0829 27.8271 31.5706 27.4994 31.2629 27.4994C31.1727 27.4994 30.8748 27.6119 30.6007 27.7496L30.1025 27.9998L30.1561 26.9546C30.1856 26.3797 30.2198 25.8126 30.2322 25.6945C30.2591 25.437 30.1197 25.4116 29.4632 25.5544ZM109.97 25.5216C109.851 25.5599 109.628 25.5952 109.474 25.5999L109.193 25.6085V25.7774C109.193 25.8702 109.28 25.9921 109.387 26.0481C109.676 26.1997 109.708 26.2853 109.71 26.9192L109.711 27.4994H109.381C108.927 27.4994 108.244 27.7203 107.983 27.9515C107.132 28.7059 107.066 30.0902 107.846 30.8423C108.226 31.2095 108.654 31.27 109.24 31.0391L109.676 30.8675L109.888 31.0294C110.004 31.1184 110.212 31.1922 110.35 31.1932C110.667 31.1956 111.178 30.8159 111.178 30.5783V30.4001L110.941 30.4517C110.81 30.4801 110.622 30.5268 110.521 30.5553C110.408 30.5875 110.323 30.5637 110.296 30.493C110.26 30.3967 110.323 28.1316 110.419 26.0407L110.445 25.4847L110.315 25.4682C110.244 25.4592 110.089 25.4833 109.97 25.5216ZM47.1277 25.7233C46.8727 25.851 46.7276 26.253 46.8734 26.4279C47.0135 26.596 47.4284 26.5882 47.6032 26.4143C47.7999 26.2183 47.7424 25.7747 47.5093 25.6896C47.4045 25.6513 47.2428 25.6657 47.1277 25.7233ZM79.2688 25.7611C79.2132 25.7963 79.1425 25.9255 79.1116 26.0482C78.9991 26.4945 79.5803 26.7312 79.931 26.382C80.1388 26.1751 80.1498 26.0106 79.968 25.8295C79.8264 25.6885 79.4427 25.651 79.2688 25.7611ZM17.4737 26.2793C17.3756 26.4067 17.1865 26.7817 17.0536 27.1126C16.9207 27.4435 16.7789 27.7916 16.7386 27.8861C16.6983 27.9807 16.4821 28.5608 16.2581 29.1753L15.8509 30.2927L15.5215 30.6286C15.3403 30.8134 15.1921 30.9914 15.1921 31.0241C15.1921 31.0829 16.3209 31.1936 16.9308 31.1946C17.2817 31.1952 17.4062 31.0305 17.2603 30.7592C17.1928 30.6335 17.0781 30.5935 16.7859 30.5935H16.4005V30.4344C16.4005 30.1996 16.5782 29.7098 16.7169 29.5621C16.7968 29.477 17.0723 29.4186 17.5275 29.3902L18.2171 29.3472L18.3878 29.8017C18.6315 30.4505 18.6147 30.5638 18.265 30.6291C17.953 30.6874 17.8108 30.8132 17.8196 31.0232L17.825 31.1521L18.8881 31.1561C19.478 31.1583 19.9739 31.1234 20.0023 31.0776C20.0519 30.9978 19.6917 30.6394 19.3861 30.4645C19.2943 30.412 19.1373 30.0443 18.9825 29.5191C18.8432 29.0464 18.5707 28.1182 18.377 27.4564C17.9297 25.9277 17.8373 25.8074 17.4737 26.2793ZM57.8334 26.1995C56.667 26.4509 55.9401 27.3153 55.8667 28.538C55.7969 29.7006 56.2382 30.6051 57.0874 31.0407C57.7368 31.3736 59.5911 31.1992 59.805 30.785C59.8472 30.7033 59.9039 30.2 59.9308 29.6665L59.9797 28.6965L59.145 28.7211L58.3102 28.7456L58.2791 28.9072C58.2421 29.1 58.3992 29.2152 58.7017 29.217C59.0641 29.2192 59.1999 29.3903 59.2372 29.892L59.2714 30.3509L59.0526 30.4937C58.8997 30.5934 58.646 30.6364 58.2107 30.6364H57.5878L57.3437 30.4554C57.2095 30.3559 56.9929 30.0711 56.8623 29.8225L56.625 29.3706L56.6269 28.6713C56.6292 27.8254 56.8065 27.3746 57.2778 27.0167L57.6042 26.7688H58.4125H59.2207L59.3026 26.8977C59.3476 26.9686 59.3851 27.1355 59.3859 27.2687C59.3875 27.5734 59.529 27.8431 59.6872 27.8431C59.8615 27.8431 59.8925 27.7638 59.9923 27.0633L60.0818 26.4352L59.9718 26.3293C59.8391 26.2014 58.2672 26.106 57.8334 26.1995ZM95.0799 26.2068L93.6988 26.2531V26.4671V26.6811L93.9577 26.7257L94.2167 26.7703L94.24 28.641L94.2632 30.5116L94.1105 30.5654C93.8896 30.6431 93.5693 30.9483 93.5693 31.0811V31.1951H94.5946H95.6198L95.7238 31.0703C95.781 31.0016 95.8145 30.876 95.7983 30.791L95.7688 30.6364L95.3165 30.6105L94.8641 30.5844L94.8649 30.2237C94.8652 30.0253 94.8901 29.6598 94.92 29.4117L94.9745 28.9605H95.6869H96.3994L96.4517 28.8245C96.5265 28.6306 96.5148 28.209 96.4381 28.3289C96.3524 28.4627 95.6271 28.5634 95.2531 28.4935L94.9504 28.437V27.6336V26.8302L95.087 26.778C95.2613 26.7114 95.8845 26.7126 96.1373 26.78C96.2794 26.8179 96.3315 26.8957 96.3315 27.0698C96.3315 27.2007 96.3828 27.4292 96.4455 27.5777L96.5596 27.8477L96.7109 27.6812C96.8798 27.4954 97.0827 26.4914 96.9966 26.268C96.9603 26.174 96.858 26.1305 96.701 26.1423C96.5691 26.1524 95.8395 26.1813 95.0799 26.2068ZM26.4392 27.1587C26.3538 27.2613 26.1384 27.4384 25.9603 27.5523C25.584 27.793 25.5485 27.9788 25.8524 28.1166L26.0682 28.2145L26.0703 29.2536C26.0735 30.8857 26.2003 31.1951 26.8659 31.1951C27.4294 31.1951 27.9754 30.7907 27.8502 30.4659L27.8062 30.3519L27.4767 30.4689C27.0393 30.6242 26.8743 30.6214 26.8111 30.4575C26.7823 30.3827 26.7588 29.8413 26.7588 29.2542V28.1869H27.1416C27.8497 28.1869 28.1499 27.9514 27.8376 27.6405C27.7381 27.5414 27.643 27.53 27.4282 27.5913C26.9362 27.7318 26.858 27.7011 26.8287 27.3556C26.7966 26.9777 26.651 26.9041 26.4392 27.1587ZM43.8277 27.1697C43.7166 27.2804 43.5187 27.4407 43.3878 27.5261C43.0465 27.7488 43.0193 27.9028 43.2787 28.1422L43.5046 28.3507V29.4763C43.5046 30.963 43.6165 31.1951 44.3334 31.1951C44.6692 31.1951 45.3476 30.8123 45.2936 30.6533C45.272 30.5899 45.0737 30.5505 44.7772 30.5505C44.5125 30.5505 44.2769 30.5312 44.2539 30.5075C44.1905 30.4427 44.1751 30.1269 44.1855 29.115L44.1951 28.1951L44.7346 28.1696L45.2741 28.144L45.3018 27.8555L45.3296 27.567L44.8055 27.6276L44.2814 27.6881V27.4324C44.2814 27.2917 44.2248 27.1298 44.1556 27.0726L44.0297 26.9686L43.8277 27.1697ZM17.5513 27.3966C17.4987 27.4295 17.3357 27.7642 17.1893 28.1403C16.8983 28.8876 16.9269 29.003 17.3824 28.9198C17.5189 28.8949 17.7385 28.8745 17.8705 28.8745H18.1106L17.9054 28.1321C17.6753 27.2991 17.6827 27.3146 17.5513 27.3966ZM76.9534 27.4904C76.8587 27.5283 76.522 27.5409 76.2051 27.5183C75.4785 27.4665 75.2621 27.5218 74.8785 27.8572C74.3035 28.3599 74.1582 28.9955 74.4933 29.5427C74.7206 29.9141 74.7106 30.061 74.4498 30.1794C74.1349 30.3222 74.1696 30.6294 74.5386 30.966L74.8431 31.2438L74.5841 31.5848C74.2883 31.974 74.2603 32.1926 74.4732 32.449C74.781 32.8194 75.1509 33 75.6022 33H76.0374L76.5549 32.698C77.4251 32.1902 77.7053 31.5433 77.2597 31.071C77.0081 30.8044 76.6955 30.7074 75.9 30.6495C74.8768 30.5749 74.5402 30.2277 75.4492 30.1844C76.1257 30.1522 76.2672 30.1061 76.6106 29.8059C77.086 29.3902 77.196 29.1124 77.1295 28.4944L77.0728 27.9673L77.3582 27.8837C77.7447 27.7705 77.7628 27.4645 77.3846 27.4389C77.2422 27.4293 77.0481 27.4525 76.9534 27.4904ZM35.0022 27.6419C34.4204 27.9468 33.9992 28.5124 33.879 29.1506C33.7897 29.6247 34.0418 30.3705 34.4321 30.7872L34.7586 31.1357L35.2433 31.1757C35.8491 31.2257 36.0839 31.1681 36.4198 30.8866C36.621 30.7181 36.6854 30.5929 36.6854 30.3704V30.0767L36.3272 30.3351C35.9276 30.6233 35.5285 30.6689 35.1431 30.4705C34.8988 30.3446 34.6307 29.8607 34.5921 29.4761L34.5706 29.2613L35.6064 29.2183C36.1761 29.1947 36.6908 29.144 36.7501 29.1058C37.0446 28.916 36.709 27.9097 36.2639 27.6479C35.9515 27.4642 35.3468 27.4613 35.0022 27.6419ZM39.9771 27.6316C39.6348 27.7796 39.3082 27.7942 39.228 27.6651C39.1753 27.5802 38.7148 27.6107 38.3039 27.7263C38.0756 27.7905 38.1181 28.092 38.3686 28.1869L38.5844 28.2686V29.3508V30.433L38.3686 30.7147C38.2499 30.8697 38.1528 31.0365 38.1528 31.0854C38.1528 31.1404 38.4669 31.1755 38.9728 31.1772C39.4238 31.1788 39.7929 31.146 39.7929 31.1046C39.7929 31.0631 39.6728 30.893 39.526 30.7266L39.2591 30.424L39.2887 29.5127L39.3181 28.6015L39.5603 28.3942C39.8147 28.1764 40.3212 28.1147 40.5697 28.2711L40.6992 28.3526V29.4136V30.4746L40.4618 30.7555C40.3313 30.91 40.2244 31.07 40.2244 31.111C40.2244 31.21 41.7007 31.21 41.8614 31.111L41.9866 31.034L41.6543 30.7221L41.3222 30.4101L41.3713 29.5349C41.3983 29.0535 41.3816 28.478 41.3342 28.2561L41.248 27.8526L40.8816 27.676C40.4518 27.4688 40.3638 27.4645 39.9771 27.6316ZM47.3889 27.5853C47.3177 27.6311 47.1125 27.6692 46.933 27.67C46.5019 27.6717 46.4078 27.886 46.727 28.1394L46.9573 28.3223V29.4083V30.4944L46.7415 30.7497C46.6228 30.8902 46.5257 31.0456 46.5257 31.0952C46.5257 31.2321 48.0983 31.1816 48.1447 31.0432C48.1646 30.9837 48.061 30.8302 47.9144 30.7021L47.6478 30.4693L47.6532 29.6933C47.6561 29.2666 47.6868 28.6367 47.7213 28.2935C47.7944 27.5676 47.7067 27.3807 47.3889 27.5853ZM50.5395 27.6419C50.1942 27.8229 49.8182 28.1769 49.6686 28.462C49.0159 29.7061 49.6943 31.1951 50.9138 31.1951C51.5535 31.1951 52.1364 30.8397 52.1364 30.4496C52.1364 30.2084 52.1571 30.2099 51.6926 30.4197C51.256 30.617 51.0246 30.6337 50.7093 30.4906C50.4802 30.3867 50.223 29.9734 50.1189 29.5422C49.9543 28.86 50.393 28.101 50.952 28.101C51.2803 28.101 51.4243 28.223 51.521 28.5832C51.5558 28.7125 51.6525 28.86 51.7359 28.9109L51.8876 29.0034L52.012 28.8366C52.1836 28.6065 52.1761 27.809 52.0008 27.6344C51.8186 27.453 50.8909 27.4578 50.5395 27.6419ZM62.7104 27.6342C62.2976 27.8476 62.0036 28.174 61.8 28.6451L61.6108 29.0831L61.6561 29.5805C61.7103 30.1761 62.0399 30.7874 62.4367 31.0283C63.0976 31.4296 64.48 31.0391 64.48 30.4512C64.48 30.2047 64.4569 30.2039 63.9834 30.4321C63.5426 30.6445 63.0188 30.6162 62.7349 30.3644C62.5191 30.173 62.322 29.731 62.322 29.4385V29.2235L63.4226 29.1994L64.5231 29.1753L64.5486 28.7425L64.5741 28.3098L64.3734 28.0132C64.263 27.8502 64.0767 27.6684 63.9595 27.6093C63.6645 27.4608 63.0213 27.4736 62.7104 27.6342ZM66.94 27.6345C66.3945 27.9171 66.0675 28.3689 65.8639 29.1217L65.7625 29.4968L65.8665 29.9284C66.0043 30.5006 66.6164 31.1527 67.0994 31.2419C67.7719 31.3662 68.5288 30.9442 68.9292 30.2218L69.1589 29.8073L69.1285 29.1408L69.098 28.4743L68.8491 28.1494C68.4074 27.5728 67.5209 27.3337 66.94 27.6345ZM71.2852 27.5418C71.2586 27.5685 71.0662 27.6192 70.8579 27.6546L70.4791 27.7189V27.8873C70.4791 27.9862 70.577 28.1024 70.7165 28.169L70.9538 28.2823V29.3687V30.4552L70.7268 30.6911C70.602 30.8208 70.521 30.9821 70.547 31.0495L70.5942 31.1721L71.3998 31.1566L72.2052 31.1411L72.234 30.9921C72.2744 30.7833 72.1171 30.6231 71.8119 30.5624L71.5515 30.5105L71.5929 29.6962C71.6393 28.7854 71.693 28.637 72.0515 28.4284L72.3012 28.283L72.4624 28.581C72.551 28.7449 72.6654 28.8653 72.7166 28.8486C72.8273 28.8125 72.9843 27.8264 72.91 27.6336C72.8283 27.4216 72.5723 27.475 72.113 27.8002C71.8794 27.9656 71.6629 28.101 71.632 28.101C71.6011 28.101 71.5815 27.9767 71.5886 27.8248C71.6004 27.567 71.4246 27.403 71.2852 27.5418ZM82.9953 27.5571C82.434 27.6801 81.83 28.0817 81.83 28.3319C81.83 28.4861 81.9675 28.4743 82.5527 28.2694C82.8282 28.1731 83.1255 28.1169 83.2133 28.1446C83.3912 28.2009 83.5839 28.6857 83.541 28.9692L83.5132 29.1529L82.8658 29.3152C82.0382 29.5226 81.795 29.6975 81.7599 30.1105C81.7127 30.665 82.182 31.1957 82.7188 31.1948C82.8234 31.1946 83.0361 31.1172 83.1916 31.0229C83.5467 30.8073 83.6599 30.8074 83.7953 31.0232C84.002 31.3528 84.7286 31.1446 84.9333 30.6971C85.0644 30.4105 85.0043 30.3774 84.5434 30.4824L84.1495 30.5722L84.2096 29.3938L84.2697 28.2155L84.1237 27.9937C83.9753 27.7681 83.4955 27.4913 83.2844 27.5093C83.2203 27.5148 83.0902 27.5363 82.9953 27.5571ZM99.2021 27.6407C98.497 27.9868 97.9762 28.9915 98.1042 29.7587C98.1824 30.2274 98.3218 30.487 98.6764 30.8246C99.1932 31.3165 99.7018 31.4013 100.342 31.1018C101.505 30.5572 101.818 28.7267 100.893 27.8704C100.477 27.4853 99.7266 27.3832 99.2021 27.6407ZM103.796 27.6192C103.474 27.759 103.02 28.2634 102.848 28.6733C102.677 29.0824 102.682 29.9272 102.858 30.2755C103.463 31.4691 104.596 31.6056 105.513 30.5952C105.924 30.1416 105.999 29.9345 105.999 29.2523C105.999 28.6702 105.824 28.1907 105.512 27.918C105.047 27.5112 104.332 27.3868 103.796 27.6192ZM21.2193 27.6456C21.0449 27.665 20.852 27.7411 20.7906 27.8148L20.6789 27.9488L20.8601 28.0894C20.9597 28.1667 21.1109 28.271 21.1961 28.3212L21.3511 28.4125L21.2496 28.9157C20.8727 30.784 21.5558 31.6456 22.883 30.9759L23.3175 30.7567L23.4906 30.9759C23.7462 31.2994 24.1941 31.2787 24.523 30.9281C24.7895 30.6441 24.8551 30.3356 24.649 30.3356C24.5806 30.3356 24.5007 30.3743 24.4713 30.4216C24.442 30.4688 24.2832 30.5075 24.1185 30.5075H23.8191L23.8741 29.4547C23.9043 28.8755 23.9617 28.2471 24.0016 28.058C24.0424 27.8651 24.0411 27.6812 23.9986 27.6389C23.9553 27.5958 23.6716 27.5958 23.3348 27.6389L22.7468 27.7142L22.7181 27.8639C22.6994 27.9615 22.7979 28.0773 23.001 28.1966L23.3125 28.3796L23.2547 29.2502C23.1933 30.1752 23.1537 30.2763 22.7771 30.4702C22.4483 30.6395 22.2152 30.6247 22.0112 30.4216L21.8386 30.2497L21.8403 29.6695C21.8413 29.3505 21.8806 28.838 21.9279 28.5307C21.9751 28.2235 22.0229 27.8947 22.0341 27.8002L22.0544 27.6283L21.7954 27.6193C21.653 27.6144 21.3938 27.6263 21.2193 27.6456ZM79.2836 27.6275C79.2361 27.6433 79.0905 27.6797 78.9599 27.7084C78.6296 27.7809 78.6626 27.9989 79.0269 28.1504L79.3312 28.277L79.292 28.5972C79.2704 28.7734 79.2499 29.2739 79.2466 29.7095L79.2404 30.5015L78.9815 30.7952C78.8391 30.9567 78.7225 31.1141 78.7225 31.1451C78.7225 31.176 79.1008 31.1903 79.5631 31.1767L80.4037 31.1521L80.4325 31.0025C80.4513 30.9044 80.3514 30.7882 80.1428 30.6657L79.8244 30.4786L79.8811 29.5262C79.9123 29.0023 79.9608 28.3514 79.9887 28.0795L80.0396 27.5853L79.7047 27.5921C79.5206 27.5958 79.3311 27.6118 79.2836 27.6275ZM86.4652 27.6683C86.0463 27.749 85.9083 27.8764 86.0523 28.0492C86.1107 28.1193 86.243 28.1886 86.3464 28.2033L86.5343 28.2299L86.55 29.3583L86.5656 30.4868L86.3126 30.7281C85.8965 31.125 85.9648 31.1787 86.8814 31.1756C87.3335 31.174 87.7254 31.1373 87.7523 31.0939C87.7792 31.0504 87.6584 30.8807 87.4837 30.7167L87.1661 30.4185L87.1955 29.5099L87.2249 28.6015L87.4671 28.3942C87.7457 28.1557 88.2585 28.1147 88.5248 28.3095L88.6923 28.4321L88.6846 29.3871L88.6769 30.342L88.5044 30.5752C88.4095 30.7034 88.2858 30.8946 88.2295 31.0001L88.1269 31.1918L88.9542 31.1874L89.7814 31.1829L89.8292 31.059C89.8883 30.9055 89.713 30.6858 89.4528 30.5873L89.2567 30.513L89.3109 29.449C89.3407 28.8638 89.3388 28.2812 89.3069 28.1544C89.1833 27.6641 88.4825 27.4696 87.6434 27.6927L87.2394 27.8002L87.2034 27.6927C87.1643 27.5762 86.9754 27.5699 86.4652 27.6683ZM35.1588 28.1409C35.0076 28.2064 34.8221 28.3789 34.7466 28.5243L34.6093 28.7886L34.9783 28.7836C35.331 28.7789 36.1317 28.6486 35.9517 28.6253C35.9042 28.6191 35.9226 28.578 35.9926 28.5339L36.1198 28.4538L35.9128 28.2345C35.6789 27.9866 35.5515 27.9708 35.1588 28.1409ZM62.8443 28.1656C62.6512 28.263 62.524 28.4023 62.4823 28.5618L62.4181 28.8078L63.0821 28.7461C63.4474 28.7122 63.7727 28.6423 63.8049 28.5907C63.8934 28.4495 63.7202 28.1892 63.4764 28.0969C63.1941 27.99 63.1917 27.9903 62.8443 28.1656ZM66.9029 28.3396C66.3656 28.8746 66.5108 30.3048 67.131 30.5862C67.5832 30.7913 68.0969 30.596 68.2874 30.1463C68.4416 29.7825 68.4173 28.9679 68.2422 28.6309C67.9442 28.0572 67.3224 27.9219 66.9029 28.3396ZM75.1734 28.2637C75.0197 28.3876 74.9715 28.5127 74.9715 28.7882V29.15L75.2516 29.399C75.7094 29.8064 76.2458 29.6912 76.4769 29.1358L76.5855 28.8745L76.4769 28.6132C76.417 28.4695 76.2871 28.2955 76.1882 28.2265C75.9349 28.0498 75.415 28.0688 75.1734 28.2637ZM99.2425 28.2084C98.8742 28.4847 98.7186 29.4628 98.9538 30.0231C99.2895 30.8232 100.221 30.9019 100.605 30.1628C100.884 29.6252 100.663 28.5599 100.206 28.2413C99.9674 28.0749 99.4442 28.0571 99.2425 28.2084ZM103.825 28.267C103.444 28.5652 103.293 29.4618 103.529 30.0231C103.976 31.0886 105.309 30.7546 105.309 29.5771C105.309 29.0035 105.209 28.7007 104.919 28.3951C104.591 28.0489 104.167 27.9992 103.825 28.267ZM108.529 28.1878C108.104 28.3581 107.875 29.1832 108.061 29.8707C108.193 30.3584 108.432 30.5505 108.907 30.5505H109.294L109.503 30.3093L109.711 30.0682V29.1735V28.2789L109.544 28.1899C109.344 28.0834 108.792 28.0822 108.529 28.1878ZM82.8912 29.762C82.5088 29.9014 82.4032 30.029 82.4655 30.2761C82.6072 30.8383 83.5564 30.4622 83.5564 29.8437C83.5564 29.6196 83.351 29.5943 82.8912 29.762ZM75.1825 31.5604C74.9301 31.9725 74.9626 32.1292 75.3319 32.2829C75.8259 32.4884 76.3704 32.3951 76.6781 32.0523L76.9267 31.7752L76.7665 31.6158C76.6204 31.4704 75.913 31.281 75.5157 31.281C75.4254 31.281 75.2777 31.4048 75.1825 31.5604Z" fill="white"/>
</svg>
