<svg width="221" height="25" viewBox="0 0 221 25" fill="none" xmlns="http://www.w3.org/2000/svg">
<path d="M12.8 4.96L13.024 7.552H12.864C12.64 6.88 12.64 6.784 12.448 6.432C10.816 3.04 9.088 1.856 6.528 1.856C4.16 1.856 1.728 3.232 1.728 6.496C1.728 13.216 13.504 10.592 13.504 18.976C13.504 22.528 10.496 24.352 7.872 24.352C4.448 24.352 2.656 21.952 0.928 18.784L1.12 19.904L0.928 19.936L0.48 17.696L0.64 17.664C0.8 18.144 0.832 18.144 0.992 18.464C2.464 20.576 4.384 23.552 7.456 23.552C10.144 23.552 12.064 21.856 12.064 18.816C12.064 12.064 0.48 14.112 0.48 6.528C0.48 3.136 3.136 0.959999 6.304 0.959999C9.344 0.959999 11.52 2.944 12.672 6.24L12.608 4.992L12.8 4.96ZM21.0765 1.6H25.5245V1.92L24.0205 2.08V23.52L25.5245 23.68V24H21.0765V23.68L22.5805 23.52V12.128H17.4285V23.52L18.9325 23.68V24H14.4525V23.68L15.9565 23.52V2.08L14.4525 1.92V1.6H18.9325V1.92L17.4285 2.08V11.584H22.5805V2.08L21.0765 1.92V1.6ZM37.1643 1.024C43.8203 1.024 48.7163 6.56 48.7163 13.248C48.7163 19.36 44.5563 24.352 38.1563 24.352C31.4683 24.352 26.6363 18.912 26.6363 12.384C26.6363 6.272 30.7963 1.024 37.1643 1.024ZM39.2763 23.36C43.9803 23.36 47.5643 19.84 47.5643 15.264C47.5643 7.808 43.5323 2.112 36.2683 2.112C31.4363 2.112 27.5323 5.984 27.5323 10.816C27.5323 17.856 32.6203 23.36 39.2763 23.36ZM49.6988 1.6H60.2588V5.632H59.9388L59.3308 2.144H55.7148V23.52L57.2188 23.68V24H52.7388V23.68L54.2428 23.52V2.144H50.6268L50.0188 5.632H49.6988V1.6ZM61.39 1.6H65.87V1.92L64.366 2.08V23.52L65.87 23.68V24H61.39V23.68L62.894 23.52V2.08L61.39 1.92V1.6ZM89.0845 18.08C89.0845 19.328 88.7645 20.416 88.1885 21.344C88.9885 22.08 89.7565 22.816 90.4925 23.52L91.9965 23.68V24H87.1965V23.68L88.7005 23.52C88.2845 23.168 87.8685 22.784 87.4205 22.368C86.0765 23.776 84.0605 24.608 81.9165 24.608C78.6205 24.608 75.2925 22.464 75.2925 18.112C75.2925 15.68 76.8285 13.696 78.6525 12.736C77.3085 10.656 76.4445 8.608 76.4445 6.752C76.4445 2.56 79.4525 1.152 82.7165 1.152C85.4045 1.152 87.6765 3.328 87.6765 5.792C87.6765 7.936 87.1645 9.216 85.1485 10.912L86.1405 10.56L86.2045 10.688L84.2525 11.584L84.1565 11.456C86.6845 9.952 86.4925 7.456 86.4925 6.208C86.4925 4.128 84.7645 1.76 81.9165 1.76C78.5245 1.76 77.7565 4.096 77.7565 6.432C77.7565 11.328 83.0365 16.512 87.7085 20.896C88.1565 20.064 88.3805 19.104 88.3805 18.08C88.3805 15.648 87.4205 13.28 85.6285 12.128L85.7245 11.968L88.2525 13.216L88.1565 13.376L86.7805 12.768C88.0605 14.048 89.0845 15.264 89.0845 18.08ZM86.9725 21.984C84.2525 19.488 80.9885 16.288 78.8445 13.056C77.1485 13.888 76.7005 15.872 76.7005 18.272C76.7005 22.496 79.9965 24.064 82.4605 24.064C84.3165 24.064 85.9165 23.264 86.9725 21.984ZM113.425 4.96L113.649 7.552H113.489C113.265 6.88 113.265 6.784 113.073 6.432C111.441 3.04 109.713 1.856 107.153 1.856C104.785 1.856 102.353 3.232 102.353 6.496C102.353 13.216 114.129 10.592 114.129 18.976C114.129 22.528 111.121 24.352 108.497 24.352C105.073 24.352 103.281 21.952 101.553 18.784L101.745 19.904L101.553 19.936L101.105 17.696L101.265 17.664C101.425 18.144 101.457 18.144 101.617 18.464C103.089 20.576 105.009 23.552 108.081 23.552C110.769 23.552 112.689 21.856 112.689 18.816C112.689 12.064 101.105 14.112 101.105 6.528C101.105 3.136 103.761 0.959999 106.929 0.959999C109.969 0.959999 112.145 2.944 113.297 6.24L113.233 4.992L113.425 4.96ZM127.302 0.927999L137.606 23.52L138.982 23.712V24H134.502V23.712L135.846 23.616L131.014 12.768H122.438L117.446 23.52L119.398 23.68V24H114.918V23.712L116.838 23.52L127.302 0.927999ZM126.822 3.36L122.726 12.16H130.758L126.822 3.36ZM147.853 6.976C147.853 9.792 146.637 12.672 143.373 12.672H143.085V23.52L144.589 23.68V24H140.109V23.68L141.613 23.52V2.08L140.109 1.92V1.6H143.405C146.157 1.6 147.853 4.128 147.853 6.976ZM143.085 12.192H143.373C146.413 12.192 146.413 9.28 146.381 6.976C146.349 4.576 145.869 2.048 143.373 2.048H143.085V12.192ZM148.828 1.6H156.604V5.632H156.316L155.772 2.144H151.804V10.24H153.82L154.044 7.872H154.396L154.46 13.792H154.108L153.82 10.784H151.804V23.52H155.612L156.028 20.32H156.38V24H148.828V23.68L150.332 23.52V2.144L148.828 1.92V1.6ZM165.478 7.008C165.478 10.24 163.718 12.544 161.35 12.704C166.246 13.184 164.806 17.76 165.926 21.28C166.63 23.68 167.302 24 167.814 24C168.39 24 168.678 22.944 168.678 22.944C168.678 22.944 168.902 23.648 168.774 23.936C168.614 24.288 168.134 24.416 167.75 24.416C167.366 24.416 165.734 23.776 164.838 20.96C163.91 18.048 164.646 13.088 160.71 13.088V23.52L162.214 23.68V24H157.734V23.68L159.238 23.52V2.08L157.734 1.92V1.6H161.03C164.71 1.6 165.478 4.448 165.478 7.008ZM160.71 2.048V12.256H161.03C163.11 12.256 163.91 10.176 164.006 7.104C164.102 4.352 163.462 2.048 161.03 2.048H160.71ZM181.927 0.927999L192.231 23.52L193.607 23.712V24H189.127V23.712L190.471 23.616L185.639 12.768H177.062L172.071 23.52L174.023 23.68V24H169.543V23.712L171.463 23.52L181.927 0.927999ZM181.447 3.36L177.351 12.16H185.383L181.447 3.36ZM210.386 1.6H214.962V1.92L213.01 2.048L202.322 24.416L191.826 2.016L190.418 1.92V1.6H194.994V1.92L193.618 2.016L202.834 22.016L212.37 2.048L210.386 1.92V1.6ZM216.109 1.6H220.589V1.92L219.085 2.08V23.52L220.589 23.68V24H216.109V23.68L217.613 23.52V2.08L216.109 1.92V1.6Z" fill="white"/>
</svg>
